<svg xmlns="http://www.w3.org/2000/svg" xmlns:xlink="http://www.w3.org/1999/xlink" version="1.1" width="1024" height="768" viewBox="0 0 1024 768" xml:space="preserve">
<desc>Created with Fabric.js 6.7.1</desc>
<defs>
</defs>
<g transform="matrix(1 0 0 1 458.2239 361.0488)">
<path style="stroke: none; stroke-width: 1; stroke-dasharray: none; stroke-linecap: butt; stroke-dashoffset: 0; stroke-linejoin: miter; stroke-miterlimit: 4; fill: rgb(0,0,0); fill-rule: nonzero; opacity: 1;" transform=" translate(-458.2239, -361.0488)" d="M 198.2553 367.1839 L 198.2553 361.0143 L 218.1217 361.0143 L 218.1217 286.0787 L 199.4163 286.0787 C 199.4163 286.0787 199.4163 286.0787 199.4163 286.0787 L 199.4163 286.0787 C 195.7183 286.0787 193.1382 286.8499 191.6762 288.3923 C 190.2142 289.9348 189.4831 292.7197 189.4831 296.7471 L 189.4831 311.6571 L 182.904 311.6571 L 182.904 279.5235 L 231.0219 279.5235 L 231.0219 286.0787 L 218.1217 286.0787 L 218.1217 279.5235 L 266.1106 279.5235 L 266.1106 311.6571 L 259.5315 311.6571 L 259.5315 296.7471 C 259.5315 292.7197 258.8005 289.9348 257.3384 288.3923 C 255.9624 286.8499 253.3824 286.0787 249.5983 286.0787 C 249.5983 286.0787 231.0219 286.0787 231.0219 286.0787 L 231.0219 361.0143 L 250.8883 361.0143 L 250.8883 367.1839 Z M 330.2279 368.3414 C 325.5838 368.3414 322.1008 367.0132 319.7787 364.3568 C 317.4567 361.7004 316.2957 357.9729 316.2957 353.1743 L 316.2957 350.7839 C 315.8319 352.6403 315.2299 354.3368 314.4896 355.8735 C 312.5116 360.158 309.6305 363.3285 305.8465 365.3851 C 302.1484 367.356 297.7623 368.3414 292.6882 368.3414 C 286.4961 368.3414 281.551 366.799 277.8529 363.7141 C 274.2409 360.6293 272.4348 356.5591 272.4348 351.5034 C 272.4348 347.733 273.2519 344.6482 274.8859 342.2489 C 276.5199 339.7639 278.799 337.7502 281.723 336.2078 C 284.7331 334.6654 288.1302 333.4229 291.9142 332.4803 L 302.3634 330.0381 C 305.0295 329.3526 307.3085 328.6242 309.2005 327.853 C 311.0926 327.0818 312.5546 326.0107 313.5866 324.6397 C 314.6186 323.2686 315.1346 321.4263 315.1346 319.1127 L 315.1346 318.8556 L 326.6159 320.5266 L 326.6159 353.5599 C 326.6159 355.4451 327.0889 357.0303 328.0349 358.3157 C 328.9809 359.5153 330.3569 360.1152 332.163 360.1152 C 334.055 360.1152 335.474 359.5153 336.42 358.3157 C 337.3661 357.0303 337.8391 355.4451 337.8391 353.5599 L 337.8391 326.4392 L 344.4182 326.4392 L 344.4182 353.0458 C 344.4182 357.7587 343.2572 361.4862 340.9351 364.2283 C 338.6131 366.9703 335.044 368.3414 330.2279 368.3414 Z M 311.3936 331.9661 C 309.6735 332.9944 307.1795 333.9798 303.9114 334.9224 L 297.8483 336.4648 C 295.0963 337.2361 292.7742 338.1786 290.8822 339.2926 C 288.9901 340.3209 287.5281 341.6491 286.4961 343.2772 C 285.5501 344.8196 285.0771 346.7476 285.0771 349.0612 C 285.0771 352.4888 286.1951 355.188 288.4311 357.1589 C 290.7532 359.0441 293.7202 359.9867 297.3323 359.9867 C 300.5144 359.9867 303.4384 359.3011 306.1045 357.9301 C 308.7705 356.4734 310.9205 354.2026 312.5546 351.1178 C 314.1886 347.9473 315.0056 343.7913 315.0056 338.6499 L 315.0056 327.9816 C 314.3176 329.6097 313.1136 330.9379 311.3936 331.9662 Z M 285.4639 326.4385 C 283.3139 326.4385 281.4218 325.753 279.7878 324.382 C 278.2398 322.9253 277.4657 320.8687 277.4657 318.2123 C 277.4657 314.2706 278.6698 311.0573 281.0778 308.5723 C 283.5719 306.0873 286.7969 304.2449 290.753 303.0453 C 294.7091 301.7599 298.9231 301.1173 303.3952 301.1173 C 310.8774 301.1173 316.5965 302.7025 320.5525 305.873 C 324.5946 309.0435 326.6157 313.9278 326.6157 320.5259 L 315.1345 318.855 C 315.1345 314.8276 313.9304 311.7856 311.5224 309.7291 C 309.1143 307.6725 305.5023 306.6442 300.6862 306.6442 C 297.8481 306.6442 295.1391 307.0727 292.559 307.9296 C 290.065 308.7008 288.0009 309.9004 286.3669 311.5285 C 285.5413 312.3512 284.8803 313.3051 284.384 314.3902 C 286.5745 314.5137 288.3965 314.9736 289.85 315.7702 C 291.57 316.7128 292.43 318.2552 292.43 320.3974 C 292.43 322.2826 291.828 323.7821 290.624 324.8961 C 289.42 325.9244 287.6999 326.4385 285.4639 326.4385 Z M 393.1838 368.4692 C 387.3356 368.4692 382.4336 367.0982 378.4775 364.3561 C 374.6074 361.5283 371.6834 357.6295 369.7053 352.6595 C 369.6618 352.5432 369.6188 352.4266 369.5763 352.3095 L 369.5763 367.1839 L 358.0951 367.1839 L 358.0951 285.5645 L 347.5169 285.5645 L 347.5169 279.5234 L 370.4794 279.5234 L 370.4794 316.3879 C 372.3676 311.6553 375.1197 307.9789 378.7355 305.3588 C 382.5196 302.6167 387.3787 301.2457 393.3128 301.2457 C 398.8169 301.2457 403.676 302.5739 407.89 305.2303 C 412.1041 307.801 415.3722 311.5713 417.6942 316.5413 C 420.1023 321.5113 421.3063 327.6381 421.3063 334.9217 C 421.3063 342.034 420.1023 348.1179 417.6942 353.1736 C 415.3722 358.1436 412.1041 361.9568 407.89 364.6132 C 403.676 367.1839 398.7739 368.4692 393.1838 368.4692 Z M 389.0557 361.3998 C 392.8398 361.3998 396.1508 360.3715 398.9889 358.315 C 401.8269 356.1727 404.02 353.1308 405.568 349.189 C 407.202 345.2473 408.019 340.4915 408.019 334.9217 C 408.019 329.2662 407.202 324.4676 405.568 320.5259 C 404.02 316.4985 401.8269 313.4565 398.9889 311.3999 C 396.1508 309.3434 392.8398 308.3151 389.0557 308.3151 C 385.1856 308.3151 381.7886 309.3434 378.8645 311.3999 C 376.0265 313.4565 373.7904 316.4985 372.1564 320.5259 C 370.5224 324.4676 369.7053 329.2662 369.7053 334.9217 C 369.7053 340.4915 370.5224 345.2473 372.1564 349.189 C 373.7904 353.1308 376.0265 356.1727 378.8645 358.315 C 381.7886 360.3715 385.1856 361.3998 389.0557 361.3998 Z M 428.1458 367.1839 L 428.1458 361.0143 L 439.885 361.0143 L 439.885 285.6931 L 429.0488 285.6931 L 429.0488 279.5235 L 452.2692 279.5235 L 452.2692 361.0143 L 462.9764 361.0143 L 462.9764 367.1839 Z M 501.4209 368.3412 C 495.3148 368.3412 489.8967 367.013 485.1666 364.3566 C 480.4365 361.7003 476.7385 357.8871 474.0724 352.9171 C 471.4064 347.9471 470.0733 341.9488 470.0733 334.9223 C 470.0733 327.81 471.4064 321.7689 474.0724 316.7989 C 476.7385 311.7432 480.4365 307.93 485.1666 305.3593 C 489.8967 302.703 495.3148 301.3748 501.4209 301.3748 C 507.871 301.3748 513.2461 302.6601 517.5462 305.2308 C 521.9323 307.7158 525.2434 311.2291 527.4794 315.7706 C 529.7154 320.2265 530.8335 325.4107 530.8335 331.3233 L 530.8335 333.2513 L 482.4605 333.2513 C 482.4585 333.4641 482.4576 333.6784 482.4576 333.894 C 482.4576 341.9488 484.4356 348.247 488.3917 352.7885 C 492.3477 357.3301 497.7228 359.6009 504.517 359.6009 C 508.9891 359.6009 512.6441 358.7011 515.4822 356.9016 C 518.4062 355.1022 520.5993 352.8314 522.0613 350.0893 C 523.5233 347.3472 524.4263 344.6052 524.7703 341.8631 L 530.5755 341.8631 C 530.4895 345.0336 529.8014 348.2041 528.5114 351.3747 C 527.3074 354.5452 525.5014 357.4158 523.0933 359.9865 C 520.7713 362.4715 517.8042 364.4852 514.1921 366.0276 C 510.5801 367.57 506.323 368.3412 501.4209 368.3412 Z M 491.4877 310.2437 C 488.6497 312.1288 486.4136 315.0423 484.7796 318.984 C 483.8299 321.3496 483.1715 324.1346 482.8044 327.3387 L 518.7072 327.3387 C 518.6212 323.4827 517.9332 320.0551 516.6432 317.056 C 515.3532 313.9712 513.4611 311.5719 510.9671 309.8581 C 508.473 308.1443 505.377 307.2874 501.6789 307.2874 C 497.8089 307.2874 494.4118 308.2728 491.4877 310.2437 Z M 557.6688 367.1839 L 557.6688 361.0143 L 577.5352 361.0143 L 577.5352 286.0787 L 558.8298 286.0787 C 558.8298 286.0787 558.8298 286.0787 558.8298 286.0787 L 558.8298 286.0787 C 555.1318 286.0787 552.5517 286.8499 551.0897 288.3923 C 549.6277 289.9348 548.8967 292.7197 548.8967 296.7471 L 548.8967 311.6571 L 542.3175 311.6571 L 542.3175 279.5235 L 590.4354 279.5235 L 590.4354 286.0787 L 577.5352 286.0787 L 577.5352 279.5235 L 625.5241 279.5235 L 625.5241 311.6571 L 618.945 311.6571 L 618.945 296.7471 C 618.945 292.7197 618.2139 289.9348 616.7519 288.3923 C 615.3759 286.8499 612.7958 286.0787 609.0118 286.0787 C 609.0118 286.0787 590.4354 286.0787 590.4354 286.0787 L 590.4354 361.0143 L 610.3018 361.0143 L 610.3018 367.1839 Z M 633.3962 367.1844 L 633.3962 361.0147 L 645.5224 361.0147 L 645.5224 308.7012 L 634.6862 308.7012 L 634.6862 302.5316 L 656.6166 302.5316 L 656.6166 313.9287 C 656.78 313.5029 656.952 313.0885 657.1326 312.6858 C 659.0247 308.6584 661.6047 305.7021 664.8728 303.8169 C 668.1408 301.8461 671.9249 300.8606 676.225 300.8606 C 680.697 300.8606 684.2661 301.9746 686.9322 304.2025 C 689.6842 306.4305 691.0602 309.5581 691.0602 313.5855 C 691.0602 316.0705 690.3292 318.1699 688.8672 319.8837 C 687.4912 321.5118 685.5561 322.3259 683.0621 322.3259 C 680.9121 322.3259 679.192 321.7689 677.902 320.6549 C 676.612 319.4553 675.967 317.9557 675.967 316.1562 C 675.967 313.9283 676.741 312.2573 678.289 311.1434 C 679.6153 310.1697 681.4514 309.6476 683.7975 309.5771 C 683.3754 308.8942 682.8292 308.3023 682.1591 307.8015 C 680.439 306.5162 678.031 305.8735 674.9349 305.8735 C 671.7529 305.8735 668.8288 306.7304 666.1628 308.4442 C 663.5827 310.0723 661.5187 312.5573 659.9707 315.8992 C 658.5086 319.1554 657.7776 323.2685 657.7776 328.2385 L 657.7776 361.0147 L 677.644 361.0147 L 677.644 367.1844 Z M 716.7341 386.5933 C 718.5402 385.4794 720.1312 383.8513 721.5072 381.709 C 722.9693 379.5668 724.3023 376.9961 725.5063 373.997 L 727.7376 368.9706 L 703.4469 308.7015 L 696.2228 308.7015 L 696.2228 302.5319 L 729.5054 302.5319 L 729.5054 308.7015 L 716.6051 308.7015 L 734.1539 354.8094 L 752.2098 308.7015 L 739.4385 308.7015 L 739.4385 302.5319 L 766.6581 302.5319 L 766.6581 308.7015 L 759.4339 308.7015 L 733.8914 372.1975 C 732.0854 376.8247 730.1074 380.7236 727.9573 383.8941 C 725.8073 387.0647 723.3132 389.464 720.4752 391.0921 C 717.7231 392.8059 714.3691 393.6628 710.413 393.6628 C 706.1989 393.6628 702.7159 392.6773 699.9638 390.7065 C 697.2118 388.7356 695.8357 386.0792 695.8357 382.7373 C 695.9217 380.7665 696.6097 379.1812 697.8998 377.9816 C 699.2758 376.7819 701.0388 376.1821 703.1889 376.1821 C 704.9089 376.1821 706.3279 376.6105 707.446 377.4674 C 708.65 378.41 709.252 379.6954 709.252 381.3234 C 709.252 383.1229 708.564 384.4511 707.1879 385.308 C 706.3343 385.8751 705.2923 386.2733 704.062 386.5026 C 704.3453 386.7272 704.6562 386.9289 704.9949 387.1075 C 706.4569 387.9644 708.263 388.3928 710.413 388.3928 C 712.9071 388.3928 715.0141 387.793 716.7341 386.5934 Z M 812.9725 368.4692 C 807.1243 368.4692 802.2223 367.0982 798.2662 364.3561 C 794.3961 361.5283 791.4721 357.6295 789.494 352.6595 C 789.4505 352.5432 789.4075 352.4266 789.365 352.3095 L 789.365 367.1839 L 777.8838 367.1839 L 777.8838 285.5645 L 767.3056 285.5645 L 767.3056 279.5234 L 790.268 279.5234 L 790.268 316.3879 C 792.1563 311.6553 794.9084 307.9789 798.5242 305.3588 C 802.3083 302.6167 807.1674 301.2457 813.1015 301.2457 C 818.6056 301.2457 823.4647 302.5739 827.6787 305.2303 C 831.8928 307.801 835.1609 311.5713 837.4829 316.5413 C 839.891 321.5113 841.095 327.6381 841.095 334.9217 C 841.095 342.034 839.891 348.1179 837.4829 353.1736 C 835.1609 358.1436 831.8928 361.9568 827.6787 364.6132 C 823.4647 367.1839 818.5626 368.4692 812.9725 368.4692 Z M 808.8444 361.3998 C 812.6285 361.3998 815.9395 360.3715 818.7776 358.315 C 821.6156 356.1727 823.8087 353.1308 825.3567 349.189 C 826.9907 345.2473 827.8077 340.4915 827.8077 334.9217 C 827.8077 329.2662 826.9907 324.4676 825.3567 320.5259 C 823.8087 316.4985 821.6156 313.4565 818.7776 311.3999 C 815.9395 309.3434 812.6285 308.3151 808.8444 308.3151 C 804.9743 308.3151 801.5772 309.3434 798.6532 311.3999 C 795.8152 313.4565 793.5791 316.4985 791.9451 320.5259 C 790.311 324.4676 789.494 329.2662 789.494 334.9217 C 789.494 340.4915 790.311 345.2473 791.9451 349.189 C 793.5791 353.1308 795.8152 356.1727 798.6532 358.315 C 801.5772 360.3715 804.9743 361.3998 808.8444 361.3998 Z M 357.7625 445.4932 L 361.3175 445.4932 L 361.3175 417.2332 L 357.7625 417.2332 L 357.7625 415.6582 L 379.8575 415.6582 L 379.8575 422.8582 L 377.5175 422.8582 L 377.5175 417.3232 L 364.0625 417.3232 L 364.0625 430.5082 L 374.0975 430.5082 L 374.0975 426.8182 L 376.1225 426.8182 L 376.1225 435.8632 L 374.0975 435.8632 L 374.0975 432.1732 L 364.0625 432.1732 L 364.0625 445.4932 L 368.5175 445.4932 L 368.5175 447.0682 L 357.7625 447.0682 Z M 393.3125 447.6082 C 390.1925 447.6082 387.7175 446.5582 385.8875 444.4582 C 384.0575 442.3582 383.1425 439.3882 383.1425 435.5482 C 383.1425 433.7182 383.3825 432.0532 383.8625 430.5532 C 384.3725 429.0532 385.0775 427.7932 385.9775 426.7732 C 386.8775 425.7232 387.9425 424.9132 389.1725 424.3432 C 390.4025 423.7732 391.7525 423.4882 393.2225 423.4882 C 394.6625 423.4882 395.9525 423.7582 397.0925 424.2982 C 398.2625 424.8382 399.2525 425.5882 400.0625 426.5482 C 400.8725 427.4782 401.4875 428.6182 401.9075 429.9682 C 402.3575 431.2882 402.5825 432.7282 402.5825 434.2882 L 402.5825 435.0532 L 386.0225 435.0532 L 386.0225 436.4932 C 386.0225 439.4032 386.7275 441.6382 388.1375 443.1982 C 389.5475 444.7582 391.3925 445.5382 393.6725 445.5382 C 395.5625 445.5382 397.0925 445.1182 398.2625 444.2782 C 399.4625 443.4382 400.3775 442.4032 401.0075 441.1732 L 402.1325 441.8482 C 401.8325 442.5682 401.4275 443.2732 400.9175 443.9632 C 400.4075 444.6532 399.7775 445.2682 399.0275 445.8082 C 398.3075 446.3482 397.4675 446.7832 396.5075 447.1132 C 395.5775 447.4432 394.5125 447.6082 393.3125 447.6082 Z M 386.0225 433.5232 L 399.8375 433.5232 L 399.8375 433.2532 C 399.8375 432.0832 399.7025 431.0032 399.4325 430.0132 C 399.1625 429.0232 398.7425 428.1682 398.1725 427.4482 C 397.6325 426.6982 396.9425 426.1282 396.1025 425.7382 C 395.2925 425.3182 394.3325 425.1082 393.2225 425.1082 C 392.1125 425.1082 391.1075 425.3032 390.2075 425.6932 C 389.3375 426.0832 388.5875 426.6382 387.9575 427.3582 C 387.3275 428.0782 386.8475 428.9332 386.5175 429.9232 C 386.1875 430.9132 386.0225 432.0082 386.0225 433.2082 Z M 417.2525 447.6082 C 414.1325 447.6082 411.6575 446.5582 409.8275 444.4582 C 407.9975 442.3582 407.0825 439.3882 407.0825 435.5482 C 407.0825 433.7182 407.3225 432.0532 407.8025 430.5532 C 408.3125 429.0532 409.0175 427.7932 409.9175 426.7732 C 410.8175 425.7232 411.8825 424.9132 413.1125 424.3432 C 414.3425 423.7732 415.6925 423.4882 417.1625 423.4882 C 418.6025 423.4882 419.8925 423.7582 421.0325 424.2982 C 422.2025 424.8382 423.1925 425.5882 424.0025 426.5482 C 424.8125 427.4782 425.4275 428.6182 425.8475 429.9682 C 426.2975 431.2882 426.5225 432.7282 426.5225 434.2882 L 426.5225 435.0532 L 409.9625 435.0532 L 409.9625 436.4932 C 409.9625 439.4032 410.6675 441.6382 412.0775 443.1982 C 413.4875 444.7582 415.3325 445.5382 417.6125 445.5382 C 419.5025 445.5382 421.0325 445.1182 422.2025 444.2782 C 423.4025 443.4382 424.3175 442.4032 424.9475 441.1732 L 426.0725 441.8482 C 425.7725 442.5682 425.3675 443.2732 424.8575 443.9632 C 424.3475 444.6532 423.7175 445.2682 422.9675 445.8082 C 422.2475 446.3482 421.4075 446.7832 420.4475 447.1132 C 419.5175 447.4432 418.4525 447.6082 417.2525 447.6082 Z M 409.9625 433.5232 L 423.7775 433.5232 L 423.7775 433.2532 C 423.7775 432.0832 423.6425 431.0032 423.3725 430.0132 C 423.1025 429.0232 422.6825 428.1682 422.1125 427.4482 C 421.5725 426.6982 420.8825 426.1282 420.0425 425.7382 C 419.2325 425.3182 418.2725 425.1082 417.1625 425.1082 C 416.0525 425.1082 415.0475 425.3032 414.1475 425.6932 C 413.2775 426.0832 412.5275 426.6382 411.8975 427.3582 C 411.2675 428.0782 410.7875 428.9332 410.4575 429.9232 C 410.1275 430.9132 409.9625 432.0082 409.9625 433.2082 Z M 441.1025 447.6082 C 438.1625 447.6082 435.8375 446.5882 434.1275 444.5482 C 432.4475 442.5082 431.6075 439.5082 431.6075 435.5482 C 431.6075 431.5882 432.4475 428.5882 434.1275 426.5482 C 435.8375 424.5082 438.1625 423.4882 441.1025 423.4882 C 442.9925 423.4882 444.5225 423.9082 445.6925 424.7482 C 446.8625 425.5582 447.6875 426.5182 448.1675 427.6282 L 448.3475 427.6282 L 448.3475 415.5682 L 444.8375 415.1182 L 444.8375 413.9482 L 450.9575 412.9582 L 450.9575 444.9082 L 454.4675 445.3582 L 454.4675 446.5282 L 448.3475 447.5182 L 448.3475 443.4232 L 448.1675 443.4232 C 447.6575 444.5632 446.8325 445.5532 445.6925 446.3932 C 444.5525 447.2032 443.0225 447.6082 441.1025 447.6082 Z M 441.7775 445.7182 C 442.6175 445.7182 443.4275 445.5982 444.2075 445.3582 C 444.9875 445.1182 445.6775 444.7732 446.2775 444.3232 C 446.9075 443.8732 447.4025 443.3332 447.7625 442.7032 C 448.1525 442.0732 448.3475 441.3532 448.3475 440.5432 L 448.3475 430.5532 C 448.3475 429.7432 448.1525 429.0232 447.7625 428.3932 C 447.4025 427.7632 446.9075 427.2232 446.2775 426.7732 C 445.6775 426.3232 444.9875 425.9782 444.2075 425.7382 C 443.4275 425.4982 442.6175 425.3782 441.7775 425.3782 C 439.4375 425.3782 437.6225 426.1582 436.3325 427.7182 C 435.0725 429.2482 434.4425 431.3332 434.4425 433.9732 L 434.4425 437.1232 C 434.4425 439.7632 435.0725 441.8632 436.3325 443.4232 C 437.6225 444.9532 439.4375 445.7182 441.7775 445.7182 Z M 471.6575 456.6082 C 470.3075 456.6082 469.3325 456.3082 468.7325 455.7082 C 468.1325 455.1382 467.8325 454.4482 467.8325 453.6382 C 467.8325 453.0082 467.9975 452.4982 468.3275 452.1082 C 468.6575 451.7482 469.1375 451.5682 469.7675 451.5682 C 470.3075 451.5682 470.7275 451.7332 471.0275 452.0632 C 471.3575 452.3932 471.5225 452.8432 471.5225 453.4132 C 471.5225 453.8332 471.4025 454.1782 471.1625 454.4482 C 470.9525 454.7182 470.6975 454.9132 470.3975 455.0332 L 470.3975 455.1232 C 470.7275 455.2432 471.1625 455.3032 471.7025 455.3032 C 472.6625 455.3032 473.5175 454.9282 474.2675 454.1782 C 475.0475 453.4282 475.7525 452.1982 476.3825 450.4882 L 477.4175 447.6982 L 468.9575 425.6032 L 466.6625 425.6032 L 466.6625 424.0282 L 475.6175 424.0282 L 475.6175 425.6032 L 471.7925 425.6032 L 478.6325 444.1432 L 478.8125 444.1432 L 485.5175 425.6032 L 481.6925 425.6032 L 481.6925 424.0282 L 489.7475 424.0282 L 489.7475 425.6032 L 487.4525 425.6032 L 477.8675 450.7582 C 477.1775 452.5882 476.3225 454.0132 475.3025 455.0332 C 474.3125 456.0832 473.0975 456.6082 471.6575 456.6082 Z M 502.0325 445.9432 C 503.2325 445.9432 504.2825 445.7332 505.1825 445.3132 C 506.0825 444.8932 506.8325 444.3232 507.4325 443.6032 C 508.0625 442.8532 508.5275 441.9682 508.8275 440.9482 C 509.1275 439.8982 509.2775 438.7432 509.2775 437.4832 L 509.2775 433.6132 C 509.2775 432.3532 509.1275 431.2132 508.8275 430.1932 C 508.5275 429.1432 508.0625 428.2582 507.4325 427.5382 C 506.8325 426.7882 506.0825 426.2032 505.1825 425.7832 C 504.2825 425.3632 503.2325 425.1532 502.0325 425.1532 C 500.8325 425.1532 499.7825 425.3632 498.8825 425.7832 C 497.9825 426.2032 497.2175 426.7882 496.5875 427.5382 C 495.9875 428.2582 495.5375 429.1432 495.2375 430.1932 C 494.9375 431.2132 494.7875 432.3532 494.7875 433.6132 L 494.7875 437.4832 C 494.7875 438.7432 494.9375 439.8982 495.2375 440.9482 C 495.5375 441.9682 495.9875 442.8532 496.5875 443.6032 C 497.2175 444.3232 497.9825 444.8932 498.8825 445.3132 C 499.7825 445.7332 500.8325 445.9432 502.0325 445.9432 Z M 502.0325 447.6082 C 500.4725 447.6082 499.0625 447.3382 497.8025 446.7982 C 496.5725 446.2582 495.5075 445.4782 494.6075 444.4582 C 493.7375 443.4082 493.0625 442.1332 492.5825 440.6332 C 492.1025 439.1332 491.8625 437.4382 491.8625 435.5482 C 491.8625 433.6582 492.1025 431.9782 492.5825 430.5082 C 493.0625 429.0082 493.7375 427.7482 494.6075 426.7282 C 495.5075 425.6782 496.5725 424.8832 497.8025 424.3432 C 499.0625 423.7732 500.4725 423.4882 502.0325 423.4882 C 503.5925 423.4882 504.9875 423.7732 506.2175 424.3432 C 507.4775 424.8832 508.5425 425.6782 509.4125 426.7282 C 510.3125 427.7482 511.0025 429.0082 511.4825 430.5082 C 511.9625 431.9782 512.2025 433.6582 512.2025 435.5482 C 512.2025 437.4382 511.9625 439.1332 511.4825 440.6332 C 511.0025 442.1332 510.3125 443.4082 509.4125 444.4582 C 508.5425 445.4782 507.4775 446.2582 506.2175 446.7982 C 504.9875 447.3382 503.5925 447.6082 502.0325 447.6082 Z M 527.0075 447.6082 C 524.3075 447.6082 522.3425 446.8882 521.1125 445.4482 C 519.8825 443.9782 519.2675 441.7882 519.2675 438.8782 L 519.2675 426.1882 L 515.7575 425.7382 L 515.7575 424.5682 L 521.8775 423.5782 L 521.8775 438.6082 C 521.8775 441.0382 522.3725 442.8382 523.3625 444.0082 C 524.3825 445.1482 525.8975 445.7182 527.9075 445.7182 C 528.6575 445.7182 529.3925 445.6132 530.1125 445.4032 C 530.8625 445.1932 531.5075 444.8782 532.0475 444.4582 C 532.6175 444.0382 533.0675 443.4982 533.3975 442.8382 C 533.7575 442.1782 533.9375 441.4132 533.9375 440.5432 L 533.9375 426.1882 L 530.4275 425.7382 L 530.4275 424.5682 L 536.5475 423.5782 L 536.5475 444.9082 L 540.0575 445.3582 L 540.0575 446.5282 L 534.0275 447.5182 L 534.0275 443.4682 L 533.8475 443.4682 C 533.6675 443.9782 533.3825 444.4882 532.9925 444.9982 C 532.6325 445.4782 532.1675 445.9132 531.5975 446.3032 C 531.0275 446.6932 530.3525 447.0082 529.5725 447.2482 C 528.8225 447.4882 527.9675 447.6082 527.0075 447.6082 Z M 543.6575 445.4932 L 547.1675 445.4932 L 547.1675 426.1882 L 543.6575 425.7382 L 543.6575 424.5682 L 549.7325 423.5782 L 549.7325 427.8532 L 549.9125 427.8532 C 550.1225 427.3432 550.3925 426.8332 550.7225 426.3232 C 551.0825 425.7832 551.5025 425.3032 551.9825 424.8832 C 552.4925 424.4632 553.0775 424.1332 553.7375 423.8932 C 554.3975 423.6232 555.1475 423.4882 555.9875 423.4882 C 557.0975 423.4882 557.9675 423.7432 558.5975 424.2532 C 559.2575 424.7332 559.5875 425.4532 559.5875 426.4132 C 559.5875 427.1032 559.4075 427.6432 559.0475 428.0332 C 558.6875 428.4232 558.2225 428.6182 557.6525 428.6182 C 556.9925 428.6182 556.4675 428.4532 556.0775 428.1232 C 555.7175 427.7632 555.5375 427.2982 555.5375 426.7282 C 555.5375 426.2782 555.6425 425.9032 555.8525 425.6032 C 556.0625 425.3032 556.2875 425.1232 556.5275 425.0632 L 556.5275 424.9732 C 556.2875 424.9432 556.0925 424.9282 555.9425 424.9282 C 555.7925 424.9282 555.6275 424.9282 555.4475 424.9282 C 554.7875 424.9282 554.1125 425.0932 553.4225 425.4232 C 552.7625 425.7532 552.1625 426.1882 551.6225 426.7282 C 551.0825 427.2682 550.6325 427.8832 550.2725 428.5732 C 549.9425 429.2632 549.7775 429.9682 549.7775 430.6882 L 549.7775 445.4932 L 554.2325 445.4932 L 554.2325 447.0682 L 543.6575 447.0682 Z M 579.1175 447.2482 C 577.8575 447.2482 576.9875 447.0232 576.5075 446.5732 C 576.0575 446.0932 575.8325 445.2832 575.8325 444.1432 L 575.8325 425.6932 L 572.7725 425.6932 L 572.7725 424.0282 L 573.4475 424.0282 C 574.4975 424.0282 575.1875 423.8782 575.5175 423.5782 C 575.8775 423.2782 576.1175 422.7832 576.2375 422.0932 L 576.9125 417.8182 L 578.4425 417.8182 L 578.4425 424.0282 L 584.6075 424.0282 L 584.6075 425.6932 L 578.4425 425.6932 L 578.4425 445.4032 L 584.6075 445.4032 L 584.6075 446.6182 C 584.3375 446.7082 583.9775 446.7982 583.5275 446.8882 C 583.0775 446.9482 582.5975 447.0082 582.0875 447.0682 C 581.5775 447.1282 581.0525 447.1732 580.5125 447.2032 C 580.0025 447.2332 579.5375 447.2482 579.1175 447.2482 Z M 588.0275 445.4932 L 591.5375 445.4932 L 591.5375 426.1882 L 588.0275 425.7382 L 588.0275 424.5682 L 594.1025 423.5782 L 594.1025 427.8532 L 594.2825 427.8532 C 594.4925 427.3432 594.7625 426.8332 595.0925 426.3232 C 595.4525 425.7832 595.8725 425.3032 596.3525 424.8832 C 596.8625 424.4632 597.4475 424.1332 598.1075 423.8932 C 598.7675 423.6232 599.5175 423.4882 600.3575 423.4882 C 601.4675 423.4882 602.3375 423.7432 602.9675 424.2532 C 603.6275 424.7332 603.9575 425.4532 603.9575 426.4132 C 603.9575 427.1032 603.7775 427.6432 603.4175 428.0332 C 603.0575 428.4232 602.5925 428.6182 602.0225 428.6182 C 601.3625 428.6182 600.8375 428.4532 600.4475 428.1232 C 600.0875 427.7632 599.9075 427.2982 599.9075 426.7282 C 599.9075 426.2782 600.0125 425.9032 600.2225 425.6032 C 600.4325 425.3032 600.6575 425.1232 600.8975 425.0632 L 600.8975 424.9732 C 600.6575 424.9432 600.4625 424.9282 600.3125 424.9282 C 600.1625 424.9282 599.9975 424.9282 599.8175 424.9282 C 599.1575 424.9282 598.4825 425.0932 597.7925 425.4232 C 597.1325 425.7532 596.5325 426.1882 595.9925 426.7282 C 595.4525 427.2682 595.0025 427.8832 594.6425 428.5732 C 594.3125 429.2632 594.1475 429.9682 594.1475 430.6882 L 594.1475 445.4932 L 598.6025 445.4932 L 598.6025 447.0682 L 588.0275 447.0682 Z M 606.6575 445.4932 L 610.1675 445.4932 L 610.1675 426.1882 L 606.6575 425.7382 L 606.6575 424.5682 L 612.7775 423.5782 L 612.7775 445.4932 L 616.2875 445.4932 L 616.2875 447.0682 L 606.6575 447.0682 Z M 611.4725 417.9082 C 610.8725 417.9082 610.4075 417.7282 610.0775 417.3682 C 609.7475 416.9782 609.5825 416.5282 609.5825 416.0182 L 609.5825 415.8382 C 609.5825 415.3282 609.7475 414.8932 610.0775 414.5332 C 610.4075 414.1432 610.8725 413.9482 611.4725 413.9482 C 612.0725 413.9482 612.5375 414.1432 612.8675 414.5332 C 613.1975 414.8932 613.3625 415.3282 613.3625 415.8382 L 613.3625 416.0182 C 613.3625 416.5282 613.1975 416.9782 612.8675 417.3682 C 612.5375 417.7282 612.0725 417.9082 611.4725 417.9082 Z M 632.2175 447.6082 C 630.2975 447.6082 628.7525 447.2032 627.5825 446.3932 C 626.4125 445.5532 625.5725 444.5782 625.0625 443.4682 L 624.8825 443.4682 L 623.5775 447.0682 L 622.3625 447.0682 L 622.3625 415.5682 L 618.8525 415.1182 L 618.8525 413.9482 L 624.9725 412.9582 L 624.9725 427.6732 L 625.1525 427.6732 C 625.6625 426.5332 626.4875 425.5582 627.6275 424.7482 C 628.7975 423.9082 630.3275 423.4882 632.2175 423.4882 C 635.1575 423.4882 637.4675 424.5082 639.1475 426.5482 C 640.8575 428.5882 641.7125 431.5882 641.7125 435.5482 C 641.7125 439.5082 640.8575 442.5082 639.1475 444.5482 C 637.4675 446.5882 635.1575 447.6082 632.2175 447.6082 Z M 631.5425 445.7182 C 633.8825 445.7182 635.6825 444.9532 636.9425 443.4232 C 638.2325 441.8632 638.8775 439.7632 638.8775 437.1232 L 638.8775 433.9732 C 638.8775 431.3332 638.2325 429.2482 636.9425 427.7182 C 635.6825 426.1582 633.8825 425.3782 631.5425 425.3782 C 630.7025 425.3782 629.8925 425.4982 629.1125 425.7382 C 628.3325 425.9782 627.6275 426.3232 626.9975 426.7732 C 626.3975 427.2232 625.9025 427.7632 625.5125 428.3932 C 625.1525 429.0232 624.9725 429.7432 624.9725 430.5532 L 624.9725 440.5432 C 624.9725 441.3532 625.1525 442.0732 625.5125 442.7032 C 625.9025 443.3332 626.3975 443.8732 626.9975 444.3232 C 627.6275 444.7732 628.3325 445.1182 629.1125 445.3582 C 629.8925 445.5982 630.7025 445.7182 631.5425 445.7182 Z M 656.9675 447.6082 C 653.8475 447.6082 651.3725 446.5582 649.5425 444.4582 C 647.7125 442.3582 646.7975 439.3882 646.7975 435.5482 C 646.7975 433.7182 647.0375 432.0532 647.5175 430.5532 C 648.0275 429.0532 648.7325 427.7932 649.6325 426.7732 C 650.5325 425.7232 651.5975 424.9132 652.8275 424.3432 C 654.0575 423.7732 655.4075 423.4882 656.8775 423.4882 C 658.3175 423.4882 659.6075 423.7582 660.7475 424.2982 C 661.9175 424.8382 662.9075 425.5882 663.7175 426.5482 C 664.5275 427.4782 665.1425 428.6182 665.5625 429.9682 C 666.0125 431.2882 666.2375 432.7282 666.2375 434.2882 L 666.2375 435.0532 L 649.6775 435.0532 L 649.6775 436.4932 C 649.6775 439.4032 650.3825 441.6382 651.7925 443.1982 C 653.2025 444.7582 655.0475 445.5382 657.3275 445.5382 C 659.2175 445.5382 660.7475 445.1182 661.9175 444.2782 C 663.1175 443.4382 664.0325 442.4032 664.6625 441.1732 L 665.7875 441.8482 C 665.4875 442.5682 665.0825 443.2732 664.5725 443.9632 C 664.0625 444.6532 663.4325 445.2682 662.6825 445.8082 C 661.9625 446.3482 661.1225 446.7832 660.1625 447.1132 C 659.2325 447.4432 658.1675 447.6082 656.9675 447.6082 Z M 649.6775 433.5232 L 663.4925 433.5232 L 663.4925 433.2532 C 663.4925 432.0832 663.3575 431.0032 663.0875 430.0132 C 662.8175 429.0232 662.3975 428.1682 661.8275 427.4482 C 661.2875 426.6982 660.5975 426.1282 659.7575 425.7382 C 658.9475 425.3182 657.9875 425.1082 656.8775 425.1082 C 655.7675 425.1082 654.7625 425.3032 653.8625 425.6932 C 652.9925 426.0832 652.2425 426.6382 651.6125 427.3582 C 650.9825 428.0782 650.5025 428.9332 650.1725 429.9232 C 649.8425 430.9132 649.6775 432.0082 649.6775 433.2082 Z M 152.0686 286.9006 C 158.9281 300.7248 157.4478 317.2679 148.2447 329.6328 L 117.321 371.1803 C 116.9732 371.6473 116.4279 371.9222 115.8484 371.9222 C 115.269 371.9222 114.7236 371.6473 114.3758 371.1803 L 83.4521 329.6328 C 74.2489 317.2679 72.7687 300.7248 79.6282 286.9006 C 86.4878 273.0764 100.5099 264.3438 115.8484 264.3438 C 131.1869 264.3438 145.209 273.0764 152.0686 286.9006 Z M 148.2718 298.0598 C 144.8959 282.3511 130.8913 271.296 114.9472 271.7532 C 99.0031 272.2104 85.6451 284.0505 83.1614 299.9272 C 80.6776 315.8039 89.7729 331.2106 104.8042 336.5883 L 104.8042 300.5866 L 101.7486 298.5278 C 100.2074 297.4961 99.2814 295.7552 99.2821 293.8908 L 99.2821 288.4562 C 99.2821 287.4318 100.1062 286.6014 101.1228 286.6014 C 102.1394 286.6014 102.9635 287.4318 102.9635 288.4562 L 102.9635 293.8908 C 102.9666 294.5112 103.2775 295.089 103.7918 295.4302 L 104.8042 296.1165 L 104.8042 286.6014 C 104.8042 285.577 105.6283 284.7466 106.6449 284.7466 C 107.6615 284.7466 108.4856 285.577 108.4856 286.6014 L 108.4856 296.1165 L 109.498 295.4302 C 110.0123 295.089 110.3232 294.5112 110.3263 293.8908 L 110.3263 288.4562 C 110.3263 287.4318 111.1504 286.6014 112.167 286.6014 C 113.1836 286.6014 114.0077 287.4318 114.0077 288.4562 L 114.0077 293.8908 C 114.0084 295.7552 113.0824 297.4961 111.5412 298.5278 L 108.4856 300.5866 L 108.4856 337.6826 C 113.9558 338.9719 119.6647 338.8057 125.0519 337.2003 L 125.0519 319.9878 L 123.2112 319.9878 C 120.1613 319.9878 117.6891 317.4966 117.6891 314.4234 L 117.6891 307.7461 C 117.7038 299.6436 120.4419 291.785 125.4569 285.4514 C 125.9445 284.839 126.7621 284.6021 127.498 284.8605 C 128.2341 285.1189 128.7289 285.8161 128.7333 286.6014 L 128.7333 335.902 C 143.4368 329.6715 151.6478 313.7685 148.2718 298.0598 Z M 132.729 382.2874 L 144.788 382.2874 L 144.788 404.197 L 149.6116 409.0658 L 149.6116 457.7538 L 82.0812 457.7538 L 82.0812 409.0658 L 115.8464 374.9842 L 132.729 392.025 Z" stroke-linecap="round"/>
</g>
</svg>